<?xml version="1.0" standalone="no"?>
<!DOCTYPE svg PUBLIC "-//W3C//DTD SVG 20010904//EN"
 "http://www.w3.org/TR/2001/REC-SVG-20010904/DTD/svg10.dtd">
<svg version="1.0" xmlns="http://www.w3.org/2000/svg"
 width="216.000000pt" height="216.000000pt" viewBox="0 0 216.000000 216.000000"
 preserveAspectRatio="xMidYMid meet">

<g transform="translate(0.000000,216.000000) scale(0.100000,-0.100000)"
fill="#fff" stroke="none">
<path d="M895 2144 c-213 -38 -446 -153 -480 -236 -8 -21 -15 -47 -15 -58 0
-20 57 -67 77 -62 6 1 14 -11 18 -28 4 -16 11 -32 16 -35 21 -14 6 -25 -31
-23 -50 2 -61 -9 -65 -63 -2 -23 -7 -45 -12 -48 -4 -3 -8 -22 -9 -41 0 -19 -3
-51 -5 -70 l-4 -35 45 -3 c80 -4 87 -8 101 -58 15 -50 46 -79 73 -68 20 8 20
0 0 -31 -20 -30 -5 -33 21 -5 20 22 50 27 41 8 -22 -55 -29 -90 -18 -97 12 -7
34 -212 25 -240 -3 -9 -10 -27 -16 -40 -9 -19 -8 -25 6 -36 15 -11 15 -14 2
-25 -18 -15 -20 -43 -2 -38 6 2 19 19 29 37 23 46 24 46 83 46 51 0 54 -1 58
-29 6 -40 -21 -84 -58 -95 -16 -5 -70 -25 -118 -44 -66 -27 -97 -34 -123 -30
-20 3 -47 0 -62 -7 -59 -27 -88 -39 -109 -45 -13 -3 -23 -10 -23 -14 0 -5 -20
-21 -45 -37 -54 -34 -100 -104 -91 -139 12 -48 266 -291 266 -256 0 6 7 11 16
11 10 0 13 -6 10 -18 -5 -13 7 -25 46 -49 89 -54 126 -66 159 -53 33 14 53 5
46 -21 -5 -17 6 -23 39 -18 4 0 10 -4 13 -9 9 -15 186 -42 271 -41 108 0 176
9 159 20 -9 6 1 7 27 3 39 -6 114 9 187 38 30 12 36 33 11 42 -9 4 -14 9 -11
13 4 3 13 0 21 -6 39 -32 118 -1 256 100 114 83 245 233 304 346 18 36 20 47
7 38 -5 -3 -31 2 -57 11 -29 10 -64 14 -87 11 -21 -3 -62 0 -91 8 -28 7 -70
15 -94 19 -48 7 -109 42 -162 93 -19 19 -48 36 -63 40 -33 7 -77 65 -77 101
l0 24 20 -23 c18 -21 21 -22 32 -9 7 9 21 14 31 12 12 -2 20 3 24 17 3 11 9
18 14 15 24 -14 94 53 103 100 5 23 9 26 20 17 25 -21 47 32 57 137 11 104 25
162 57 233 11 24 23 64 27 89 4 25 20 97 37 160 46 175 45 166 7 207 -92 97
-268 203 -419 251 -155 51 -355 64 -515 36z m-185 -164 c0 -5 -5 -10 -11 -10
-5 0 -7 5 -4 10 3 6 8 10 11 10 2 0 4 -4 4 -10z m298 -136 c-9 -9 -21 -13 -27
-9 -16 10 -3 25 22 25 20 0 20 -1 5 -16z m82 -14 c-13 -11 -30 -20 -39 -20
-10 0 -5 8 14 20 39 26 55 26 25 0z m-140 2 c0 -13 -39 -32 -45 -22 -3 5 3 13
12 19 22 13 33 14 33 3z m477 -88 c-3 -3 -12 -4 -19 -1 -8 3 -5 6 6 6 11 1 17
-2 13 -5z m-492 -314 c-8 -13 19 -40 40 -40 9 0 14 -4 10 -10 -3 -5 3 -18 14
-29 l20 -20 40 21 c38 20 41 20 74 4 19 -9 49 -16 65 -16 17 0 34 -4 37 -10 3
-5 15 -10 25 -10 20 0 16 -6 -55 -105 -6 -9 -5 -22 4 -38 11 -21 10 -29 -4
-58 -24 -46 -55 -89 -63 -88 -19 3 -23 -2 -14 -14 9 -10 6 -18 -10 -31 -20
-18 -21 -18 -15 3 4 16 1 21 -13 21 -13 0 -18 -7 -17 -20 1 -11 5 -20 9 -20 4
0 8 -5 8 -10 0 -6 -7 -6 -19 1 -14 9 -25 8 -51 -5 -49 -24 -87 -21 -116 11
-29 32 -28 57 4 61 12 2 22 10 22 17 0 16 -54 48 -64 38 -3 -4 -6 -1 -6 5 0 7
-10 12 -22 13 -21 0 -20 2 5 11 40 14 92 2 131 -32 41 -36 56 -38 56 -6 0 38
-31 82 -67 95 -40 15 -42 28 -7 37 22 6 32 -1 68 -40 41 -44 66 -58 66 -36 0
5 -9 14 -20 20 -11 6 -20 18 -20 26 0 8 -16 31 -36 50 -36 33 -54 42 -54 26 0
-22 -129 6 -144 31 -8 13 -4 24 21 49 17 18 36 44 43 57 7 14 18 30 24 37 13
16 40 19 31 4z m477 -302 c-12 -12 -24 -19 -28 -15 -4 3 4 15 17 26 31 25 39
17 11 -11z m-695 -90 c-3 -8 -6 -5 -6 6 -1 11 2 17 5 13 3 -3 4 -12 1 -19z
m31 -50 c-5 -18 -12 -41 -15 -50 -10 -35 -23 -17 -23 32 0 46 2 50 24 50 23 0
24 -2 14 -32z m550 -38 c-14 -21 -37 -34 -47 -25 -6 7 38 44 52 45 4 0 2 -9
-5 -20z m-38 -140 c11 -7 12 -12 3 -21 -13 -13 -33 -4 -33 17 0 16 9 18 30 4z
m-603 -156 c-9 -9 -28 6 -21 18 4 6 10 6 17 -1 6 -6 8 -13 4 -17z m281 -17 c2
-11 -3 -17 -17 -17 -25 0 -38 19 -20 31 19 12 33 6 37 -14z m-488 -27 c0 -5
-7 -10 -15 -10 -8 0 -15 5 -15 10 0 6 7 10 15 10 8 0 15 -4 15 -10z m1300 0
c0 -5 -7 -10 -16 -10 -8 0 -12 5 -9 10 3 6 10 10 16 10 5 0 9 -4 9 -10z
m-1119 -23 c-13 -13 -26 -3 -16 12 3 6 11 8 17 5 6 -4 6 -10 -1 -17z m257 -4
c-2 -10 -12 -18 -23 -18 -11 0 -21 8 -23 18 -3 13 3 17 23 17 20 0 26 -4 23
-17z m960 -28 c-3 -3 -13 -2 -22 1 -14 5 -15 9 -4 15 13 8 36 -6 26 -16z
m-1427 -8 c-1 -12 -15 -9 -19 4 -3 6 1 10 8 8 6 -3 11 -8 11 -12z m1279 3 c0
-5 -7 -10 -15 -10 -8 0 -15 5 -15 10 0 6 7 10 15 10 8 0 15 -4 15 -10z m-844
-21 c3 -6 -1 -18 -9 -27 -13 -12 -19 -13 -31 -3 -8 7 -12 19 -9 27 6 17 39 19
49 3z m-256 -9 c0 -5 -4 -10 -10 -10 -5 0 -10 5 -10 10 0 6 5 10 10 10 6 0 10
-4 10 -10z m1170 -6 c0 -2 -7 -4 -15 -4 -8 0 -15 4 -15 10 0 5 7 7 15 4 8 -4
15 -8 15 -10z m-413 -9 c0 -8 -4 -12 -9 -9 -4 3 -8 9 -8 15 0 5 4 9 8 9 5 0 9
-7 9 -15z m377 -4 c11 -12 25 -17 34 -14 13 5 14 3 5 -7 -9 -10 -17 -9 -42 6
-17 10 -31 22 -31 26 0 14 16 9 34 -11z m-771 -8 c-7 -2 -19 -2 -25 0 -7 3 -2
5 12 5 14 0 19 -2 13 -5z m-572 -16 c-1 -12 -15 -9 -19 4 -3 6 1 10 8 8 6 -3
11 -8 11 -12z m787 -8 c30 -12 21 -24 -35 -49 l-38 -17 30 -16 c19 -10 24 -16
13 -17 -36 0 -32 -43 5 -55 12 -4 40 -9 61 -12 78 -9 82 -22 5 -16 -72 5 -77
4 -101 -20 -15 -15 -39 -29 -54 -33 -23 -6 -32 -2 -55 26 -23 27 -26 36 -17
60 5 16 20 36 34 45 13 8 23 20 21 25 -1 6 9 16 22 23 14 6 26 19 28 27 4 13
3 13 -6 0 -9 -12 -11 -12 -16 2 -4 10 -17 20 -28 24 -22 7 -22 7 -2 15 22 9
94 3 133 -12z m417 6 c6 -2 -12 -4 -39 -4 -38 -1 -46 -4 -38 -14 7 -8 7 -18 2
-27 -8 -12 -10 -11 -10 6 0 12 -10 28 -22 36 -21 14 -18 15 37 11 33 -3 65 -6
70 -8z m-640 -5 c3 -5 -1 -10 -9 -10 -9 0 -16 5 -16 10 0 6 4 10 9 10 6 0 13
-4 16 -10z m325 0 c0 -5 -5 -10 -11 -10 -5 0 -7 5 -4 10 3 6 8 10 11 10 2 0 4
-4 4 -10z m402 -2 c-12 -12 -65 -13 -69 -1 -3 7 10 11 36 10 22 -1 37 -5 33
-9z m-1104 -20 c-6 -18 -28 -21 -28 -4 0 9 7 16 16 16 9 0 14 -5 12 -12z m249
-9 c16 -16 5 -39 -17 -39 -23 0 -34 16 -26 35 6 18 28 19 43 4z m625 -14 c23
-20 26 -25 11 -25 -10 0 -26 12 -36 25 -23 32 -13 32 25 0z m-212 -5 c0 -5 -7
-10 -15 -10 -8 0 -15 5 -15 10 0 6 7 10 15 10 8 0 15 -4 15 -10z m430 0 c0 -5
-4 -10 -9 -10 -6 0 -13 5 -16 10 -3 6 1 10 9 10 9 0 16 -4 16 -10z m-1302 -18
c3 -9 -2 -13 -14 -10 -9 1 -19 9 -22 16 -3 9 2 13 14 10 9 -1 19 -9 22 -16z
m552 8 c0 -5 -4 -10 -9 -10 -6 0 -13 5 -16 10 -3 6 1 10 9 10 9 0 16 -4 16
-10z m-13 -26 c-3 -3 -12 -4 -19 -1 -8 3 -5 6 6 6 11 1 17 -2 13 -5z m332 -21
c1 -1 0 -6 -3 -12 -4 -6 -18 -4 -37 6 -22 11 -27 18 -18 23 7 5 22 3 33 -3 12
-7 23 -13 25 -14z m344 6 c-6 -6 -17 -8 -24 -3 -9 5 -8 9 7 14 23 9 31 3 17
-11z m-1035 -1 c-6 -18 -28 -21 -28 -4 0 9 7 16 16 16 9 0 14 -5 12 -12z m269
-23 c3 -9 -3 -24 -13 -34 -18 -17 -19 -17 -30 3 -6 12 -9 27 -6 34 6 17 41 15
49 -3z m767 -37 c11 -10 17 -20 15 -23 -3 -2 -23 14 -45 37 -35 38 -23 32 30
-14z m-1244 21 c0 -5 -4 -9 -10 -9 -5 0 -10 7 -10 16 0 8 5 12 10 9 6 -3 10
-10 10 -16z m1287 -12 c-1 -5 9 -14 23 -18 16 -4 19 -7 8 -8 -10 -1 -18 -8
-18 -16 0 -8 -7 -15 -15 -15 -18 0 -20 16 -3 26 7 5 2 15 -17 29 l-27 23 25
-5 c15 -3 25 -10 24 -16z m-674 6 c-7 -2 -19 -2 -25 0 -7 3 -2 5 12 5 14 0 19
-2 13 -5z m-428 -33 c3 -6 -1 -13 -10 -16 -19 -8 -30 0 -20 15 8 14 22 14 30
1z m999 -11 c-3 -5 -10 -7 -15 -3 -5 3 -7 10 -3 15 3 5 10 7 15 3 5 -3 7 -10
3 -15z m-739 -34 c0 -11 -7 -21 -16 -23 -18 -3 -33 23 -23 39 10 17 39 5 39
-16z m512 9 c-3 -3 -12 -4 -19 -1 -8 3 -5 6 6 6 11 1 17 -2 13 -5z m-561 -31
c7 -10 14 -28 14 -40 0 -26 -26 -31 -54 -10 -17 12 -17 15 -2 29 9 9 16 21 16
27 0 16 11 13 26 -6z m743 8 c9 -6 10 -11 2 -15 -13 -8 -31 1 -31 15 0 11 11
11 29 0z m-346 -16 c-4 -15 -36 -12 -41 3 -3 9 3 13 19 10 13 -1 23 -7 22 -13z
m132 -16 c5 -6 -4 -9 -25 -7 -19 1 -44 -2 -55 -6 -16 -6 -17 -6 -5 3 13 9 13
11 -2 11 -10 0 -18 4 -18 9 0 11 91 2 105 -10z m-455 -15 c0 -8 -5 -12 -10 -9
-6 4 -8 11 -5 16 9 14 15 11 15 -7z m100 -14 c0 -5 -14 -10 -31 -10 -17 0 -28
4 -24 10 3 6 17 10 31 10 13 0 24 -4 24 -10z m455 0 c8 -13 -5 -13 -25 0 -13
8 -13 10 2 10 9 0 20 -4 23 -10z m95 -10 c24 -6 23 -7 -10 -13 -21 -5 -36 -3
-38 3 -2 5 -10 10 -18 10 -8 0 -14 5 -14 10 0 10 11 8 80 -10z m80 10 c-19
-13 -30 -13 -30 0 0 6 10 10 23 10 18 0 19 -2 7 -10z m-593 -16 c-3 -3 -12 -4
-19 -1 -8 3 -5 6 6 6 11 1 17 -2 13 -5z m80 -10 c-3 -3 -12 -4 -19 -1 -8 3 -5
6 6 6 11 1 17 -2 13 -5z m326 -1 c-7 -2 -19 -2 -25 0 -7 3 -2 5 12 5 14 0 19
-2 13 -5z m-566 -9 c-3 -3 -12 -4 -19 -1 -8 3 -5 6 6 6 11 1 17 -2 13 -5z
m291 -6 c-7 -19 -38 -22 -38 -4 0 10 9 16 21 16 12 0 19 -5 17 -12z m319 6
c-3 -3 -12 -4 -19 -1 -8 3 -5 6 6 6 11 1 17 -2 13 -5z m-142 -33 c28 -5 82
-13 120 -17 45 -5 59 -9 40 -12 -16 -2 -36 -9 -43 -15 -10 -8 -16 -7 -21 2 -4
7 -40 19 -80 27 -40 8 -82 19 -94 25 -25 11 -30 11 78 -10z m-61 -20 c4 -5 -3
-7 -14 -4 -23 6 -26 13 -6 13 8 0 17 -4 20 -9z m-257 -17 c-3 -3 -12 -4 -19
-1 -8 3 -5 6 6 6 11 1 17 -2 13 -5z m357 -3 c3 -4 -6 -6 -19 -3 -14 2 -25 6
-25 8 0 8 39 4 44 -5z m-254 -21 c0 -5 -5 -12 -11 -16 -14 -8 -33 11 -25 25 7
11 36 4 36 -9z m-147 3 c-7 -2 -21 -2 -30 0 -10 3 -4 5 12 5 17 0 24 -2 18 -5z"/>
<path d="M1075 1180 c-3 -5 -1 -10 4 -10 6 0 11 5 11 10 0 6 -2 10 -4 10 -3 0
-8 -4 -11 -10z"/>
<path d="M1175 1151 c-3 -5 -19 -12 -35 -16 -17 -4 -30 -13 -30 -21 0 -9 5
-12 10 -9 6 3 10 1 10 -6 0 -8 5 -7 18 3 9 8 25 18 35 21 9 4 17 13 17 22 0
17 -16 20 -25 6z"/>
<path d="M1070 1030 c-24 -8 -23 -8 8 -9 17 -1 32 4 32 9 0 11 -5 11 -40 0z"/>
<path d="M1110 440 c0 -5 5 -10 10 -10 6 0 10 5 10 10 0 6 -4 10 -10 10 -5 0
-10 -4 -10 -10z"/>
</g>
</svg>
